<svg width="17" height="17" viewBox="0 0 17 17" fill="none" xmlns="http://www.w3.org/2000/svg">
<path d="M12.0164 5.53208C12.1578 5.38344 12.3488 5.30005 12.5478 5.30005C12.7469 5.30005 12.9379 5.38344 13.0793 5.53208C13.1491 5.60508 13.2046 5.69209 13.2425 5.78804C13.2803 5.884 13.2998 5.98699 13.2998 6.09102C13.2998 6.19505 13.2803 6.29804 13.2425 6.394C13.2046 6.48995 13.1491 6.57696 13.0793 6.64996L8.83183 11.0684C8.69007 11.2168 8.49894 11.3 8.2998 11.3C8.10067 11.3 7.90954 11.2168 7.76778 11.0684L3.52029 6.64996C3.45046 6.57696 3.395 6.48995 3.35715 6.394C3.3193 6.29804 3.2998 6.19505 3.2998 6.09102C3.2998 5.98699 3.3193 5.884 3.35715 5.78804C3.395 5.69209 3.45046 5.60508 3.52029 5.53208C3.66173 5.38344 3.85273 5.30005 4.05177 5.30005C4.25081 5.30005 4.44181 5.38344 4.58325 5.53208L8.30143 9.15565L12.0164 5.53208Z" fill="#333333"/>
</svg>
