<?xml version="1.0" standalone="no"?>
<!DOCTYPE svg PUBLIC "-//W3C//DTD SVG 20010904//EN"
 "http://www.w3.org/TR/2001/REC-SVG-20010904/DTD/svg10.dtd">
<svg version="1.0" xmlns="http://www.w3.org/2000/svg"
 width="500.000000pt" height="500.000000pt" viewBox="0 0 500.000000 500.000000"
 preserveAspectRatio="xMidYMid meet">

<g transform="translate(0.000000,500.000000) scale(0.100000,-0.100000)"
fill="#000000" stroke="none">
<path d="M2295 4409 c-222 -28 -446 -90 -628 -173 -229 -104 -509 -320 -659
-505 -212 -264 -343 -541 -410 -871 -20 -101 -23 -144 -23 -355 0 -264 13
-362 75 -565 209 -680 775 -1194 1472 -1334 202 -41 498 -46 693 -12 791 140
1407 724 1579 1500 75 337 57 683 -53 1008 -58 169 -101 265 -174 382 -178
286 -392 497 -672 663 -113 67 -139 81 -282 139 -257 105 -645 157 -918 123z
m561 -734 c30 -15 92 -68 164 -140 l115 -115 1 -328 c1 -180 -1 -335 -3 -345
-4 -17 -150 -97 -251 -136 -26 -10 -123 -55 -217 -100 l-170 -82 -300 142
c-165 79 -306 148 -312 154 -10 8 -13 109 -15 430 -1 373 0 424 15 452 18 34
72 72 121 83 17 5 204 8 417 9 l385 1 50 -25z m-1096 -763 c0 -66 8 -58 -116
-107 -38 -15 -73 -31 -78 -36 -9 -8 162 -98 314 -165 52 -23 169 -77 260 -121
91 -44 186 -88 212 -98 26 -9 55 -26 64 -36 15 -17 14 -21 -16 -71 -38 -61
-200 -280 -238 -320 -17 -19 -36 -28 -56 -28 -32 0 -893 415 -928 447 -28 25
-22 54 34 144 28 46 73 120 99 164 70 116 77 124 118 141 21 8 96 44 167 79
71 35 137 64 147 65 14 0 17 -9 17 -58z m1662 -16 c84 -40 163 -76 176 -80 12
-4 31 -24 41 -44 11 -20 60 -102 110 -182 100 -160 108 -187 63 -219 -63 -44
-879 -442 -910 -443 -17 -1 -39 5 -48 13 -19 16 -230 298 -262 350 -12 20 -22
42 -22 48 0 6 24 22 53 35 422 196 438 203 522 241 139 62 297 147 289 154 -5
5 -45 23 -89 41 -44 18 -86 37 -92 42 -19 16 -17 118 2 118 8 0 83 -33 167
-74z m-977 -1723 c-8 -22 -31 -15 -187 61 -84 41 -277 133 -428 205 -403 192
-383 181 -403 222 -15 32 -17 63 -15 256 l3 220 320 -158 c285 -141 326 -159
371 -159 86 0 152 61 292 272 l47 71 3 -489 c1 -269 0 -495 -3 -501z m158 920
c74 -112 165 -221 207 -249 34 -23 47 -26 97 -22 50 4 101 26 370 159 l312
154 7 -113 c3 -62 5 -164 2 -225 -6 -160 -14 -172 -174 -241 -44 -18 -158 -72
-254 -118 -435 -211 -582 -279 -598 -276 -16 3 -17 41 -17 501 0 273 1 497 2
497 0 0 21 -30 46 -67z"/>
<path d="M2717 3301 c-45 -43 -131 -127 -190 -187 l-108 -108 -77 77 c-63 63
-83 77 -108 77 -39 0 -64 -27 -64 -70 0 -30 13 -47 108 -142 152 -152 124
-160 389 106 195 197 213 218 213 250 0 25 -7 40 -26 55 -15 12 -33 21 -41 21
-8 0 -51 -35 -96 -79z"/>
</g>
</svg>
